<svg xmlns="http://www.w3.org/2000/svg" xmlns:xlink="http://www.w3.org/1999/xlink" version="1.1" x="0px" y="0px" viewBox="0 0 240 120" style="enable-background:new 0 0 240 120;" xml:space="preserve">
<style type="text/css">
	.st0{fill:#3D5BA6;}
	.st1{fill:none;stroke:#EC6E25;stroke-miterlimit:10;}
	.st2{fill:#FBF4B4;}
	.st3{fill:#EC644E;}
	.st4{fill:none;stroke:#EC644E;stroke-width:2;stroke-miterlimit:10;}
	.st5{fill:#FFFFFF;stroke:#000000;stroke-width:0.25;stroke-miterlimit:10;}
</style>
<g id="Capa_1">
	<g>
		<path class="st0" d="M72.08,58.28c0.06,0.52,0.09,1.07,0.11,1.65c0,0,2.01,13.4-13.06,11.72v1.34c0,0-3.35-0.67-3.35,3.01h1.02    l3.33,3.35c0,0-0.33,8.04-8.37,3.68c0,0-6.7,5.69-11.39-6.03c0,0-0.33-1,1.34-1c0,0,0.67,1,2.34-0.33c0,0,1.34-1.67,0-3.35    l-2.18-2.51v-3.39h2.94v-9.45h-1.94l-2.46-2.46v-7.3h18.7C59.12,47.21,70.81,46.27,72.08,58.28"/>
		<path class="st0" d="M78.22,56.91l-2.68-3.01v-6.7h15.06l2.36,2.68v7.03h-3.18l0.17,9.04l3.01,3.15v3.42c0,0-5.36,1.47-2.01,2.81    c0,0,2.01,0.67,4.35-1.67c0,0,2.34-4.69,5.69-4.35l2.01,2.68v9.84c0,0,2.68,2.88-1,2.21c0,0-1.34-0.33-3.01-1.34    c0,0-0.33-0.33-1,0c0,0-2.61,1.76-5.82,1.72c0,0-3.89,0.29-5.56-1.38c0,0-0.67-0.33-1,0c0,0-1.34,1.46-3.85,1.4    c0,0-4.19-0.06-7.2-5.76c0,0-0.67-2.34,1.67-2.01c0,0,6.03-0.67,0-6.36v-4.02h2.34L78.22,56.91z"/>
		<path class="st1" d="M179.38,56.57"/>
		<path class="st0" d="M228.96,60.93l5.68-0.17V49.87l-2.42-2.42h-5.7v2.29c0,0-3.63-2.88-7.3-2.55c0,0-9.03-1.34-11.04,7.37    c0,0-1.67,8.04,9.38,12.73c0,0,1,0.67,0,1c0,0-1.34,0.67,0,1.34l3.8,4.37c0,0,2.23-1.36,0.89,0.65c0,0-2.34,3.35-7.03-0.67v-3.35    l-3.35-0.67l-5.69-0.33c0,0,4.02,4.69,1.34,10.38l3.01,4.35h1.84c0,0,2.18-0.33,4.52-2.34c0,0,8.37,7.37,16.75-0.33    c0,0,2.34-2.01,2.01-8.71H237v-3.96l-2.65-2.65h-2.62c0,0,0.24-2.8-10.14-7.48c0,0-1-3.33,2.34-3.33c0,0,2.68-0.33,2.68,2.68    L228.96,60.93z"/>
		<path class="st0" d="M141.86,56.91h-0.73l-2.29-2.68v-7.03h19.56c0,0,10.4,1,10.5,10.55c0,0,0.76,3.52-1.58,6.53    c0,0-0.33,0.67,0,1c0,0,1,0.33,1,1h2.96l2.4,3.01v3.22c0,0-2.68-0.2-3.01,2.48c0,0,1.34,9.04-8.71,9.04c0,0-9.04,1.34-12.39-1.34    c0,0-0.67-0.67-1.34,0c0,0-3.35,4.69-8.04-0.67c0,0-5.36-6.29-1.34-5.49c0,0,3.35,0.8,3.01-3.89l-3.01-3.01v-3.01h3.01V56.91z"/>
		<g>
			<path class="st2" d="M153.78,68.69v-0.74h1.03l-0.04,1.86c0,0,5.77,2.79,0.04,4.91h-3.05V73.6l2.1-1.49L153.78,68.69z"/>
		</g>
		<path class="st1" d="M56.31,57.11v6.18c0,0,4.64,0.06,4.73-6.18H56.31z"/>
		<path class="st2" d="M42.04,52.55v-4h19.43c0,0,7.7,0.99,7.37,9.7c0,0,0.48,8.11-7.8,9.58h-3.13l-1.14-1.21h-4.02    c0,0-0.67,0-1.34,1c-0.67,1-1.67-0.67-1.67-0.67s-0.33-0.33-1,0c0,0-1.34,1.67-2.68,0v-14.4H42.04"/>
		<path class="st0" d="M52.09,51.55v12.23c0,0,9.38,1.84,10.38-5.19C62.47,58.58,63.81,49.87,52.09,51.55z"/>
		<path class="st2" d="M43.71,68.63c0,0-2.01-0.82,0-1.25h0.95l1.73,1.92c0,0,0.78,0.67,1.4,0s1.28-2.01,2.62-0.33    c0,0,0.67,1,1.67-0.17c1-1.17,1.36-1.41,1.36-1.41h1.41c0,0,1.77-0.04,0,1.11c0,0-2.1-0.12-2.77,2.02v5.06c0,0,0.67,3.11,4.02,2.1    c0,0-1.23,4.06-6.64,1.02c0,0-5.75,3.67-7.43-0.52c0,0,3.35,0.17,4.02-2.18v-5.36C46.06,70.64,45.72,68.97,43.71,68.63z"/>
		<path class="st2" d="M77.21,52.89v-4.34h11.72v4.34h-2.66v13.73c0,0-1.69,2.68-3.2,0c0,0-1.84,2.68-3.18,0.33V52.89H77.21z"/>
		<path class="st2" d="M77.88,68.97c0,0-2.01-0.82,0-1.58c0,0,0.33-0.09,2.68,1.92c0,0,0.45,1,1.4,0c0,0,1.28-2.68,2.29,0    c0,0,0.67,1.34,1.67,0c0,0,1.41-2.49,2.21-1.92c0,0,1.88,0.39,0,1.49c0,0-4.22,3.44,0.13,6.46c0,0,3.2,2.68,7.46,0    c0,0,2.92-5.36,4.93-5.36c0,0-3.35,6.69,0,10.21c0,0-1.34,0.17-3.68-1.5c0,0-0.67-1-2.01,0c0,0-6.36,3.68-10.38,0c0,0-1-1-2.01,0    c0,0-4.35,4.02-6.36-0.67c0,0,3.8,0.93,3.74-4.23C79.95,73.79,80.56,69.64,77.88,68.97z"/>
		<g>
			<path class="st0" d="M110.04,56.91h-1.66l-2.36-3.01v-6.7h26.48l2.33,2.68v12.08l-5.69-0.02l-2.34-3.01v-2.01h-5.69v3.01h4.02     l2.34,2.68v6.03h-3.67l-0.02,0.33h0.61l0.06,3.68h-1.84c0,0-2.18,1.67,0.17,2.68c0,0,5.02,0.67,4.35-4.35V69.3h5.69l2.01,2.85     V82.2c0,0,1.38,1.3,0.35,2.24c0,0-2.7,0.61-4.37-1.4c0,0-0.67-1-1.34,0c0,0-1.9,1.3-5.3,1.49c0,0-3.74,0.19-6.42-1.49     c0,0-0.33-0.67-1,0c0,0-4.02,3.68-8.04-0.33c0,0-2.01-2.01-2.68-4.52c0,0-0.67-2.18,1.67-1.84c0,0,4.02-0.33,1.67-3.68     l-2.34-2.34v-4.02h3.01V56.91z"/>
			<path class="st2" d="M111.05,52.89h-3.48v-4.34h23.58v9.68h-2.66v-5.35h-10.65v8.37h5.81v3.35h-5.96v2.01c0,0-1.77,2.68-3.2,0     c0,0-1.43,3.01-3.44,0V52.89z"/>
			<path class="st2" d="M109.04,68.63c0,0-2.01-0.66,0-1.33c0,0,1-0.01,2.68,2c0,0,0.78,1.34,1.73,0c0,0,0.95-2.01,1.95,0     c0,0,1,1.34,1.67,0c0,0,1.21-1.82,2.28-1.92c0,0,2.28,0.84,0,1.71s-0.27-0.13-0.27-0.13s-3.82,3.54,0.27,6.46     c0,0,4.75,3.03,7.94-0.37c0,0,1.17-0.39,1.17-4.41l2.68,0.02v9.52l-2.68-1.84c0,0-0.67-0.67-1.67,0c0,0-6.36,5.02-11.05,0     c0,0-1-0.67-1.67,0c0,0-3.68,4.35-6.7-0.33c0,0,3.35,0.67,3.68-2.34v-5.02C111.05,70.64,109.71,68.3,109.04,68.63z"/>
		</g>
		<path class="st2" d="M143.2,66.62V52.89h-2.81v-4.34h18.62c0,0,7.94,1.49,5.95,10.12c0,0-0.65,1.92-2.33,3.6    c0,0,3.35,1.67,4.02,4.02c0,0,0.52,2.02-1.92,1.01c0,0-0.84-0.83-1.64,0.09c0,0-0.61,0.92-1.71-0.09l-3.44-2.69h-8.37v2.01    c0,0-2.01,2.68-3.35,0C146.22,66.62,144.54,69.3,143.2,66.62z"/>
		<path class="st2" d="M144.88,68.97c0,0,1.27-1.67,2.14,0c0,0,1.14,1.34,2.01,0c0,0,1.32-1.82,1.94-1.58c0,0,2.4-0.28,0,1.49    c0,0-2.07,0.76-1.73,3.78c0,0,0.33,4.02,5.02,4.02h2.96c0,0,5.42-2.01,3.07-6.7c0,0-0.33-1.34-1.67-1c0,0-2.12-0.99-0.06-1.67    c0,0,0.73-0.34,2.74,2c0,0,1,1,1.34,0c0,0,1-2.34,2.34,0c0,0,0.67,1.34,1.34,0c0,0,1.38-2.16,2.36-1.92c0,0,2.66,0.24-0.02,1.58    c0,0-1.34,0.33-1.67,2.01c0,0,1,6.7-5.36,8.71c0,0-9.71,2.01-14.4-1c0,0-0.67-1-1.34,0c0,0-4.35,3.68-6.7-0.67    c0,0,2.68,1,3.68-2.34v-5.02c0,0-0.67-1.67-2.01-1.67c0,0-2.38-0.82-0.02-1.58c0,0,1.69-0.09,2.7,1.92    C143.54,69.3,144.88,70.64,144.88,68.97z"/>
		<path class="st2" d="M219.15,68.28c0,0,2.85-2.7,4.99,0c0,0,0.8,2.03,2.14,0.69c0,0,0.67-1.34,2.01,0c0,0,1.34,1.67,2.01,0    c0,0,5.43-3.87,1.21,0.74l0.15,5.34c0,0-1.66,8.29-11.39,5.29c0,0-4.04-0.99-5.71-2.67c0,0-1-1-1.67,0.33c0,0-2.01,1.67-3.35,1.67    c0,0,2.01-4.35-1.34-9.04c0,0,3.01-0.33,5.69,4.02c0,0,3.68,3.57,7.7,1.95c0,0,2.68-1.62,2.01-3.63c0,0-0.33-4.69-4.02-3.35    C219.58,69.64,217.72,69.6,219.15,68.28z"/>
		<path class="st2" d="M227.94,56.57h3.13v-8.02h-3.44v3.2c0,0-5.69-6.57-14.4-2.55c0,0-8.71,5.92,0,13.34c0,0,4.88,3.16,6.46,3.62    c0,0,3.52,0.03,5.06,0.91c0,0,1.28,1.13,2.08,0c0,0,0.76-0.55,1.12,0c0,0,1.69,1.22,2.36-0.46c0,0,2.15-0.62-9.65-6.51    c0,0-7.1-5.22,0.27-8.9C220.92,51.21,226.58,49.87,227.94,56.57z"/>
		<path class="st0" d="M151.08,60.71v-6.65h7.63C158.7,54.06,159.97,61.45,151.08,60.71z"/>
		<g>
			<path class="st0" d="M179.5,57.16h-1.66l-2.36-3.01v-6.7h26.48l2.33,2.68V62.2l-5.69-0.02l-2.34-3.01v-2.01h-5.69v3.01h4.02     l2.34,2.68v6.03h-3.67l-0.02,0.33h0.61l0.06,3.68h-1.84c0,0-2.18,1.67,0.17,2.68c0,0,5.02,0.67,4.35-4.35v-1.67h5.69l2.01,2.85     v10.05c0,0,1.38,1.3,0.35,2.24c0,0-2.7,0.61-4.37-1.4c0,0-0.67-1-1.34,0c0,0-1.9,1.3-5.3,1.49c0,0-3.74,0.19-6.42-1.49     c0,0-0.33-0.67-1,0c0,0-4.02,3.68-8.04-0.33c0,0-2.01-2.01-2.68-4.52c0,0-0.67-2.18,1.67-1.84c0,0,4.02-0.33,1.67-3.68     l-2.34-2.34v-4.02h3.01V57.16z"/>
			<path class="st2" d="M180.51,53.14h-3.48V48.8h23.58v9.68h-2.66v-5.35H187.3v8.37h5.81v3.35h-5.96v2.01c0,0-1.77,2.68-3.2,0     c0,0-1.43,3.01-3.44,0V53.14z"/>
			<path class="st2" d="M178.5,68.89c0,0-2.01-0.66,0-1.33c0,0,1-0.01,2.68,2c0,0,0.78,1.34,1.73,0c0,0,0.95-2.01,1.95,0     c0,0,1,1.34,1.67,0c0,0,1.21-1.82,2.28-1.92c0,0,2.28,0.84,0,1.71c-2.28,0.87-0.27-0.13-0.27-0.13s-3.82,3.54,0.27,6.46     c0,0,4.75,3.03,7.94-0.37c0,0,1.17-0.39,1.17-4.41l2.68,0.02v9.52l-2.68-1.84c0,0-0.67-0.67-1.67,0c0,0-6.36,5.02-11.05,0     c0,0-1-0.67-1.67,0c0,0-3.68,4.35-6.7-0.33c0,0,3.35,0.67,3.68-2.34V70.9C180.51,70.9,179.17,68.55,178.5,68.89z"/>
		</g>
		<g>
			<path class="st3" d="M41.04,24.85h4.34c2.56,0,4.65,0.89,4.65,3.75c0,2.77-2.1,3.96-4.65,3.96h-1.62v4.34h-2.73V24.85z      M45.16,30.4c1.43,0,2.2-0.61,2.2-1.8c0-1.19-0.77-1.59-2.2-1.59h-1.39v3.39H45.16z M44.88,31.84l1.89-1.74l3.85,6.8h-3.05     L44.88,31.84z"/>
			<path class="st3" d="M63.46,24.85h7.55v2.29h-4.83v2.42h4.11v2.29h-4.11v2.78h5.01v2.29h-7.74V24.85z"/>
			<path class="st3" d="M80.21,35.38l1.56-1.87c0.86,0.75,1.97,1.26,2.96,1.26c1.14,0,1.69-0.45,1.69-1.16c0-0.76-0.69-1-1.74-1.44     l-1.57-0.67c-1.25-0.51-2.43-1.53-2.43-3.29c0-2,1.78-3.59,4.29-3.59c1.39,0,2.84,0.55,3.88,1.58l-1.38,1.72     c-0.79-0.61-1.55-0.94-2.5-0.94c-0.94,0-1.54,0.39-1.54,1.08c0,0.74,0.79,1.01,1.84,1.43l1.54,0.62c1.47,0.6,2.39,1.58,2.39,3.28     c0,2-1.67,3.74-4.54,3.74C83.1,37.12,81.44,36.53,80.21,35.38z"/>
			<path class="st3" d="M101.02,27.13H97.7v-2.29h9.36v2.29h-3.32v9.77h-2.73V27.13z"/>
			<path class="st3" d="M118.58,24.85h3.26l3.79,12.05h-2.88l-1.58-6.1c-0.33-1.21-0.66-2.63-0.98-3.89h-0.07     c-0.29,1.27-0.61,2.68-0.95,3.89l-1.58,6.1h-2.79L118.58,24.85z M117.29,31.91h5.8v2.12h-5.8V31.91z"/>
			<path class="st3" d="M134.11,31.31v-6.47h2.72v6.75c0,2.36,0.74,3.18,2.09,3.18c1.36,0,2.14-0.82,2.14-3.18v-6.75h2.63v6.47     c0,4.05-1.64,5.81-4.76,5.81S134.11,35.36,134.11,31.31z"/>
			<path class="st3" d="M153.86,24.85h4.34c2.56,0,4.65,0.89,4.65,3.75c0,2.77-2.1,3.96-4.65,3.96h-1.62v4.34h-2.72V24.85z      M157.98,30.4c1.43,0,2.2-0.61,2.2-1.8c0-1.19-0.77-1.59-2.2-1.59h-1.39v3.39H157.98z M157.7,31.84l1.88-1.74l3.85,6.8h-3.05     L157.7,31.84z"/>
			<path class="st3" d="M174.83,24.85h3.26l3.79,12.05h-2.88l-1.58-6.1c-0.33-1.21-0.66-2.63-0.98-3.89h-0.07     c-0.29,1.27-0.61,2.68-0.95,3.89l-1.58,6.1h-2.79L174.83,24.85z M173.54,31.91h5.8v2.12h-5.8V31.91z"/>
			<path class="st3" d="M190.43,24.85h2.79l3.15,5.99l1.19,2.65h0.07c-0.13-1.27-0.35-2.96-0.35-4.38v-4.26h2.6V36.9h-2.79     l-3.14-6.01l-1.19-2.63h-0.07c0.13,1.33,0.35,2.94,0.35,4.36v4.28h-2.6V24.85z"/>
			<path class="st3" d="M212.47,27.13h-3.32v-2.29h9.36v2.29h-3.32v9.77h-2.72V27.13z"/>
			<path class="st3" d="M227.79,24.85h7.55v2.29h-4.83v2.42h4.11v2.29h-4.11v2.78h5.01v2.29h-7.74V24.85z"/>
		</g>
		<g>
			<path class="st3" d="M3.28,61.61c-0.05-0.05-0.08-0.12-0.08-0.2V45.33c0-0.08,0.03-0.15,0.08-0.2c0.05-0.06,0.11-0.08,0.19-0.08     H5.5c0.07,0,0.14,0.03,0.19,0.08c0.05,0.06,0.08,0.12,0.08,0.2V59.2c0,0.08,0.04,0.12,0.11,0.12h4.77c0.07,0,0.14,0.03,0.19,0.08     c0.05,0.06,0.08,0.12,0.08,0.2v1.81c0,0.08-0.03,0.15-0.08,0.2c-0.05,0.06-0.11,0.08-0.19,0.08H3.47     C3.39,61.7,3.33,61.67,3.28,61.61z"/>
			<path class="st3" d="M13.19,60.65c-0.77-0.82-1.16-1.92-1.16-3.28v-7.99c0-1.36,0.39-2.46,1.16-3.28s1.79-1.24,3.06-1.24     c1.27,0,2.29,0.41,3.07,1.24s1.17,1.92,1.17,3.28v7.99c0,1.36-0.39,2.46-1.17,3.28c-0.78,0.83-1.8,1.24-3.07,1.24     C14.99,61.89,13.97,61.47,13.19,60.65z M17.47,58.95c0.31-0.37,0.46-0.86,0.46-1.46v-8.23c0-0.6-0.15-1.09-0.46-1.46     s-0.71-0.56-1.21-0.56c-0.5,0-0.9,0.19-1.2,0.56s-0.45,0.86-0.45,1.46v8.23c0,0.6,0.15,1.09,0.45,1.46s0.7,0.56,1.2,0.56     C16.75,59.51,17.16,59.32,17.47,58.95z"/>
			<path class="st3" d="M23.29,60.7c-0.75-0.79-1.13-1.83-1.13-3.12v-0.62c0-0.08,0.03-0.15,0.08-0.2c0.05-0.06,0.11-0.08,0.19-0.08     h2.01c0.07,0,0.14,0.03,0.19,0.08c0.05,0.06,0.08,0.12,0.08,0.2v0.48c0,0.62,0.14,1.12,0.43,1.5c0.29,0.38,0.66,0.57,1.12,0.57     c0.46,0,0.83-0.18,1.13-0.54c0.29-0.36,0.44-0.83,0.44-1.42c0-0.41-0.08-0.77-0.24-1.07c-0.16-0.3-0.39-0.59-0.68-0.86     c-0.29-0.27-0.77-0.66-1.41-1.17c-0.74-0.57-1.33-1.08-1.78-1.52c-0.45-0.44-0.82-0.98-1.13-1.61c-0.3-0.63-0.45-1.35-0.45-2.18     c0-1.32,0.37-2.36,1.1-3.14c0.74-0.78,1.71-1.17,2.91-1.17c1.22,0,2.21,0.41,2.96,1.23c0.75,0.82,1.13,1.9,1.13,3.25v0.57     c0,0.08-0.03,0.15-0.08,0.2c-0.05,0.06-0.11,0.08-0.19,0.08h-1.99c-0.07,0-0.14-0.03-0.19-0.08c-0.05-0.06-0.08-0.12-0.08-0.2     v-0.62c0-0.62-0.14-1.11-0.43-1.49c-0.29-0.37-0.67-0.56-1.14-0.56c-0.44,0-0.8,0.17-1.08,0.51c-0.28,0.34-0.42,0.81-0.42,1.42     c0,0.57,0.15,1.05,0.45,1.45c0.3,0.4,0.89,0.94,1.78,1.64c0.9,0.71,1.57,1.3,2.03,1.75c0.46,0.45,0.81,0.95,1.06,1.49     s0.38,1.18,0.38,1.93c0,1.35-0.38,2.43-1.13,3.25s-1.74,1.23-2.96,1.23C25.03,61.89,24.05,61.49,23.29,60.7z"/>
		</g>
		<path class="st3" d="M4.02,68.42c0,0,4.67-5.12,15.33,0c0,0,6.79,2.91,12.14-1.14c0,0-3.19,7.4-12.75,4.54    C18.74,71.83,13.2,67.31,4.02,68.42z"/>
		<line class="st4" x1="39.67" y1="95.72" x2="236.33" y2="95.72"/>
		<path class="st2" d="M54,61.53V56h6.35C60.35,56,61.41,62.16,54,61.53z"/>
		<path class="st2" d="M153,59.57V56h3.97C156.97,56,157.63,59.97,153,59.57z"/>
	</g>
</g>
<g id="Capa_2">
	<path class="st5" d="M80,53"/>
</g>
</svg>